<svg height="11198" width="720" xmlns="http://www.w3.org/2000/svg">
<rect height="11198" fill="#555" width="720"></rect>
<text fill="#7f7" font-family="Courier New" font-size="12" xml:space="preserve">
<tspan x="10" y="26"></tspan>
<tspan x="10" y="42">&gt; npmdoc-hooker@0.0.1 test /home/travis/build/npmdoc/node-npmdoc-hooker</tspan>
<tspan x="10" y="58">&gt; (set -e; export PORT=$(utility2 shServerPortRandom); utility2 test test.js)</tspan>
<tspan x="10" y="74"></tspan>
<tspan x="10" y="90"></tspan>
<tspan x="10" y="106">[MODE_BUILD=npmTest] - 2017-04-07T02:58:14Z - npm-testing /home/travis/build/npmdoc/node-npmdoc-\</tspan>
<tspan x="10" y="122">hooker</tspan>
<tspan x="10" y="138"></tspan>
<tspan x="10" y="154"></tspan>
<tspan x="10" y="170">covering $ /home/travis/.nvm/versions/node/v6.10.2/bin/node /home/travis/build/npmdoc/node-npmdo\</tspan>
<tspan x="10" y="186">c-hooker/test.js</tspan>
<tspan x="10" y="202">merging file:///home/travis/build/npmdoc/node-npmdoc-hooker/tmp/build/test-report.json to test-r\</tspan>
<tspan x="10" y="218">eport</tspan>
<tspan x="10" y="234">&gt; server listening on http-port 54142</tspan>
<tspan x="10" y="250">starting</tspan>
<tspan x="10" y="266">{ async: [Function: async] }</tspan>
<tspan x="10" y="282">created apidoc file:///home/travis/build/npmdoc/node-npmdoc-hooker/tmp/build/apidoc.html</tspan>
<tspan x="10" y="298"></tspan>
<tspan x="10" y="314"></tspan>
<tspan x="10" y="330">browserTest - created electron entry-page /home/travis/build/npmdoc/node-npmdoc-hooker/tmp/elect\</tspan>
<tspan x="10" y="346">ron.15b465917dc0.9fdeb8bc2141f.html</tspan>
<tspan x="10" y="362"></tspan>
<tspan x="10" y="378">[node test-case 1 of 6 passed] - testCase_buildLib_default</tspan>
<tspan x="10" y="394">[node test-case 2 of 6 passed] - testCase_buildReadme_default</tspan>
<tspan x="10" y="410">[node test-case 3 of 6 passed] - testCase_buildTest_default</tspan>
<tspan x="10" y="426"></tspan>
<tspan x="10" y="442">browserTest - created electron entry-page /home/travis/build/npmdoc/node-npmdoc-hooker/tmp/elect\</tspan>
<tspan x="10" y="458">ron.15b4659181d0.5c36e31d15fc4.html</tspan>
<tspan x="10" y="474"></tspan>
<tspan x="10" y="490">starting</tspan>
<tspan x="10" y="506">{ async: [Function: async] }</tspan>
<tspan x="10" y="522">Xlib:  extension "RANDR" missing on display ":99.0".</tspan>
<tspan x="10" y="538">starting</tspan>
<tspan x="10" y="554">{ async: [Function: async] }</tspan>
<tspan x="10" y="570">Xlib:  extension "RANDR" missing on display ":99.0".</tspan>
<tspan x="10" y="586">starting</tspan>
<tspan x="10" y="602">{ async: [Function: async] }</tspan>
<tspan x="10" y="618">starting</tspan>
<tspan x="10" y="634">{ async: [Function: async] }</tspan>
<tspan x="10" y="650">starting</tspan>
<tspan x="10" y="666">{ async: [Function: async] }</tspan>
<tspan x="10" y="682">starting</tspan>
<tspan x="10" y="698">{ async: [Function: async] }</tspan>
<tspan x="10" y="714">starting</tspan>
<tspan x="10" y="730">{ async: [Function: async] }</tspan>
<tspan x="10" y="746">starting</tspan>
<tspan x="10" y="762">{ async: [Function: async] }</tspan>
<tspan x="10" y="778">starting</tspan>
<tspan x="10" y="794">{ async: [Function: async] }</tspan>
<tspan x="10" y="810">starting</tspan>
<tspan x="10" y="826">{ async: [Function: async] }</tspan>
<tspan x="10" y="842">starting</tspan>
<tspan x="10" y="858">{ async: [Function: async] }</tspan>
<tspan x="10" y="874">starting</tspan>
<tspan x="10" y="890">{ async: [Function: async] }</tspan>
<tspan x="10" y="906">starting</tspan>
<tspan x="10" y="922">{ async: [Function: async] }</tspan>
<tspan x="10" y="938">&gt; server listening on http-port 46290</tspan>
<tspan x="10" y="954">starting</tspan>
<tspan x="10" y="970">{ async: [Function: async] }</tspan>
<tspan x="10" y="986">starting</tspan>
<tspan x="10" y="1002">{ async: [Function: async] }</tspan>
<tspan x="10" y="1018">merging file:///home/travis/build/npmdoc/node-npmdoc-hooker/tmp/build/test-report.json to test-r\</tspan>
<tspan x="10" y="1034">eport</tspan>
<tspan x="10" y="1050">starting</tspan>
<tspan x="10" y="1066">{ async: [Function: async] }</tspan>
<tspan x="10" y="1082">Xlib:  extension "RANDR" missing on display ":99.0".</tspan>
<tspan x="10" y="1098">starting</tspan>
<tspan x="10" y="1114">{ async: [Function: async] }</tspan>
<tspan x="10" y="1130">[13039:0407/025817:WARNING:audio_manager.cc(314)] Multiple instances of AudioManager detected</tspan>
<tspan x="10" y="1146">[13039:0407/025817:WARNING:audio_manager.cc(275)] Multiple instances of AudioManager detected</tspan>
<tspan x="10" y="1162">merging file:///home/travis/build/npmdoc/node-npmdoc-hooker/tmp/build/test-report.json to test-r\</tspan>
<tspan x="10" y="1178">eport</tspan>
<tspan x="10" y="1194">[13169:0407/025817:ERROR:sandbox_linux.cc(343)] InitializeSandbox() called with multiple threads\</tspan>
<tspan x="10" y="1210"> in process gpu-process. </tspan>
<tspan x="10" y="1226">starting</tspan>
<tspan x="10" y="1242">{ async: [Function: async] }</tspan>
<tspan x="10" y="1258">[13039:0407/025817:ERROR:browser_gpu_channel_host_factory.cc(131)] Failed to create channel.</tspan>
<tspan x="10" y="1274">Xlib:  extension "RANDR" missing on display ":99.0".</tspan>
<tspan x="10" y="1290">starting</tspan>
<tspan x="10" y="1306">{ async: [Function: async] }</tspan>
<tspan x="10" y="1322">[13049:0407/025817:WARNING:audio_manager.cc(314)] Multiple instances of AudioManager detected</tspan>
<tspan x="10" y="1338">[13049:0407/025817:WARNING:audio_manager.cc(275)] Multiple instances of AudioManager detected</tspan>
<tspan x="10" y="1354">starting</tspan>
<tspan x="10" y="1370">{ async: [Function: async] }</tspan>
<tspan x="10" y="1386">starting</tspan>
<tspan x="10" y="1402">{ async: [Function: async] }</tspan>
<tspan x="10" y="1418">[13212:0407/025817:ERROR:sandbox_linux.cc(343)] InitializeSandbox() called with multiple threads\</tspan>
<tspan x="10" y="1434"> in process gpu-process. </tspan>
<tspan x="10" y="1450">[13049:0407/025818:ERROR:browser_gpu_channel_host_factory.cc(131)] Failed to create channel.</tspan>
<tspan x="10" y="1466">starting</tspan>
<tspan x="10" y="1482">{ async: [Function: async] }</tspan>
<tspan x="10" y="1498">starting</tspan>
<tspan x="10" y="1514">{ async: [Function: async] }</tspan>
<tspan x="10" y="1530">starting</tspan>
<tspan x="10" y="1546">{ async: [Function: async] }</tspan>
<tspan x="10" y="1562">starting</tspan>
<tspan x="10" y="1578">{ async: [Function: async] }</tspan>
<tspan x="10" y="1594">starting</tspan>
<tspan x="10" y="1610">{ async: [Function: async] }</tspan>
<tspan x="10" y="1626"></tspan>
<tspan x="10" y="1642">browserTest - opened url /home/travis/build/npmdoc/node-npmdoc-hooker/tmp/build/apidoc.html</tspan>
<tspan x="10" y="1658"></tspan>
<tspan x="10" y="1674">starting</tspan>
<tspan x="10" y="1690">{ async: [Function: async] }</tspan>
<tspan x="10" y="1706"></tspan>
<tspan x="10" y="1722">browserTest - opened url http://127.0.0.1:54142?modeTest=1</tspan>
<tspan x="10" y="1738"></tspan>
<tspan x="10" y="1754">starting</tspan>
<tspan x="10" y="1770">{ async: [Function: async] }</tspan>
<tspan x="10" y="1786">starting</tspan>
<tspan x="10" y="1802">{ async: [Function: async] }</tspan>
<tspan x="10" y="1818">starting</tspan>
<tspan x="10" y="1834">{ async: [Function: async] }</tspan>
<tspan x="10" y="1850">starting</tspan>
<tspan x="10" y="1866">{ async: [Function: async] }</tspan>
<tspan x="10" y="1882">starting</tspan>
<tspan x="10" y="1898">{ async: [Function: async] }</tspan>
<tspan x="10" y="1914">starting</tspan>
<tspan x="10" y="1930">{ async: [Function: async] }</tspan>
<tspan x="10" y="1946">starting</tspan>
<tspan x="10" y="1962">{ async: [Function: async] }</tspan>
<tspan x="10" y="1978">starting</tspan>
<tspan x="10" y="1994">{ async: [Function: async] }</tspan>
<tspan x="10" y="2010">starting</tspan>
<tspan x="10" y="2026">{ async: [Function: async] }</tspan>
<tspan x="10" y="2042">starting</tspan>
<tspan x="10" y="2058">{ async: [Function: async] }</tspan>
<tspan x="10" y="2074">starting</tspan>
<tspan x="10" y="2090">{ async: [Function: async] }</tspan>
<tspan x="10" y="2106">starting</tspan>
<tspan x="10" y="2122">{ async: [Function: async] }</tspan>
<tspan x="10" y="2138">starting</tspan>
<tspan x="10" y="2154">{ async: [Function: async] }</tspan>
<tspan x="10" y="2170">starting</tspan>
<tspan x="10" y="2186">{ async: [Function: async] }</tspan>
<tspan x="10" y="2202">starting</tspan>
<tspan x="10" y="2218">{ async: [Function: async] }</tspan>
<tspan x="10" y="2234">starting</tspan>
<tspan x="10" y="2250">{ async: [Function: async] }</tspan>
<tspan x="10" y="2266">starting</tspan>
<tspan x="10" y="2282">{ async: [Function: async] }</tspan>
<tspan x="10" y="2298">starting</tspan>
<tspan x="10" y="2314">{ async: [Function: async] }</tspan>
<tspan x="10" y="2330">starting</tspan>
<tspan x="10" y="2346">{ async: [Function: async] }</tspan>
<tspan x="10" y="2362">starting</tspan>
<tspan x="10" y="2378">{ async: [Function: async] }</tspan>
<tspan x="10" y="2394">starting</tspan>
<tspan x="10" y="2410">{ async: [Function: async] }</tspan>
<tspan x="10" y="2426">starting</tspan>
<tspan x="10" y="2442">{ async: [Function: async] }</tspan>
<tspan x="10" y="2458">starting</tspan>
<tspan x="10" y="2474">{ async: [Function: async] }</tspan>
<tspan x="10" y="2490">[13049:0407/025820:INFO:CONSOLE(250)] "----------|-----------|-----------|-----------|----------\</tspan>
<tspan x="10" y="2506">-|</tspan>
<tspan x="10" y="2522">File      |   % Stmts |% Branches |   % Funcs |   % Lines |</tspan>
<tspan x="10" y="2538">----------|-----------|-----------|-----------|-----------|</tspan>
<tspan x="10" y="2554">----------|-----------|-----------|-----------|-----------|</tspan>
<tspan x="10" y="2570">All files |       100 |       100 |       100 |       100 |</tspan>
<tspan x="10" y="2586">----------|-----------|-----------|-----------|-----------|</tspan>
<tspan x="10" y="2602">", source: file:///home/travis/build/npmdoc/node-npmdoc-hooker/tmp/electron.15b4659181d0.5c36e31\</tspan>
<tspan x="10" y="2618">d15fc4.html (250)</tspan>
<tspan x="10" y="2634">starting</tspan>
<tspan x="10" y="2650">{ async: [Function: async] }</tspan>
<tspan x="10" y="2666">[13049:0407/025820:INFO:CONSOLE(250)] "created coverage file:///tmp/build/coverage.html/index.ht\</tspan>
<tspan x="10" y="2682">ml", source: file:///home/travis/build/npmdoc/node-npmdoc-hooker/tmp/electron.15b4659181d0.5c36e\</tspan>
<tspan x="10" y="2698">31d15fc4.html (250)</tspan>
<tspan x="10" y="2714">starting</tspan>
<tspan x="10" y="2730">{ async: [Function: async] }</tspan>
<tspan x="10" y="2746">starting</tspan>
<tspan x="10" y="2762">{ async: [Function: async] }</tspan>
<tspan x="10" y="2778">starting</tspan>
<tspan x="10" y="2794">{ async: [Function: async] }</tspan>
<tspan x="10" y="2810">starting</tspan>
<tspan x="10" y="2826">{ async: [Function: async] }</tspan>
<tspan x="10" y="2842">starting</tspan>
<tspan x="10" y="2858">{ async: [Function: async] }</tspan>
<tspan x="10" y="2874">starting</tspan>
<tspan x="10" y="2890">{ async: [Function: async] }</tspan>
<tspan x="10" y="2906">starting</tspan>
<tspan x="10" y="2922">{ async: [Function: async] }</tspan>
<tspan x="10" y="2938">starting</tspan>
<tspan x="10" y="2954">{ async: [Function: async] }</tspan>
<tspan x="10" y="2970">starting</tspan>
<tspan x="10" y="2986">{ async: [Function: async] }</tspan>
<tspan x="10" y="3002">starting</tspan>
<tspan x="10" y="3018">{ async: [Function: async] }</tspan>
<tspan x="10" y="3034">starting</tspan>
<tspan x="10" y="3050">{ async: [Function: async] }</tspan>
<tspan x="10" y="3066">starting</tspan>
<tspan x="10" y="3082">{ async: [Function: async] }</tspan>
<tspan x="10" y="3098">starting</tspan>
<tspan x="10" y="3114">{ async: [Function: async] }</tspan>
<tspan x="10" y="3130">starting</tspan>
<tspan x="10" y="3146">{ async: [Function: async] }</tspan>
<tspan x="10" y="3162">starting</tspan>
<tspan x="10" y="3178">{ async: [Function: async] }</tspan>
<tspan x="10" y="3194">starting</tspan>
<tspan x="10" y="3210">{ async: [Function: async] }</tspan>
<tspan x="10" y="3226">starting</tspan>
<tspan x="10" y="3242">{ async: [Function: async] }</tspan>
<tspan x="10" y="3258">starting</tspan>
<tspan x="10" y="3274">{ async: [Function: async] }</tspan>
<tspan x="10" y="3290">starting</tspan>
<tspan x="10" y="3306">{ async: [Function: async] }</tspan>
<tspan x="10" y="3322">[node test-case 4 of 6 passed] - testCase_buildApp_default</tspan>
<tspan x="10" y="3338">starting</tspan>
<tspan x="10" y="3354">{ async: [Function: async] }</tspan>
<tspan x="10" y="3370">starting</tspan>
<tspan x="10" y="3386">{ async: [Function: async] }</tspan>
<tspan x="10" y="3402">starting</tspan>
<tspan x="10" y="3418">{ async: [Function: async] }</tspan>
<tspan x="10" y="3434">starting</tspan>
<tspan x="10" y="3450">{ async: [Function: async] }</tspan>
<tspan x="10" y="3466">starting</tspan>
<tspan x="10" y="3482">{ async: [Function: async] }</tspan>
<tspan x="10" y="3498">starting</tspan>
<tspan x="10" y="3514">{ async: [Function: async] }</tspan>
<tspan x="10" y="3530">starting</tspan>
<tspan x="10" y="3546">{ async: [Function: async] }</tspan>
<tspan x="10" y="3562">starting</tspan>
<tspan x="10" y="3578">{ async: [Function: async] }</tspan>
<tspan x="10" y="3594">starting</tspan>
<tspan x="10" y="3610">{ async: [Function: async] }</tspan>
<tspan x="10" y="3626">starting</tspan>
<tspan x="10" y="3642">{ async: [Function: async] }</tspan>
<tspan x="10" y="3658">starting</tspan>
<tspan x="10" y="3674">{ async: [Function: async] }</tspan>
<tspan x="10" y="3690">starting</tspan>
<tspan x="10" y="3706">{ async: [Function: async] }</tspan>
<tspan x="10" y="3722">starting</tspan>
<tspan x="10" y="3738">{ async: [Function: async] }</tspan>
<tspan x="10" y="3754">starting</tspan>
<tspan x="10" y="3770">{ async: [Function: async] }</tspan>
<tspan x="10" y="3786">starting</tspan>
<tspan x="10" y="3802">{ async: [Function: async] }</tspan>
<tspan x="10" y="3818">starting</tspan>
<tspan x="10" y="3834">{ async: [Function: async] }</tspan>
<tspan x="10" y="3850">starting</tspan>
<tspan x="10" y="3866">{ async: [Function: async] }</tspan>
<tspan x="10" y="3882">starting</tspan>
<tspan x="10" y="3898">{ async: [Function: async] }</tspan>
<tspan x="10" y="3914">starting</tspan>
<tspan x="10" y="3930">{ async: [Function: async] }</tspan>
<tspan x="10" y="3946">starting</tspan>
<tspan x="10" y="3962">{ async: [Function: async] }</tspan>
<tspan x="10" y="3978">starting</tspan>
<tspan x="10" y="3994">{ async: [Function: async] }</tspan>
<tspan x="10" y="4010">starting</tspan>
<tspan x="10" y="4026">{ async: [Function: async] }</tspan>
<tspan x="10" y="4042">starting</tspan>
<tspan x="10" y="4058">{ async: [Function: async] }</tspan>
<tspan x="10" y="4074">starting</tspan>
<tspan x="10" y="4090">{ async: [Function: async] }</tspan>
<tspan x="10" y="4106">starting</tspan>
<tspan x="10" y="4122">{ async: [Function: async] }</tspan>
<tspan x="10" y="4138">starting</tspan>
<tspan x="10" y="4154">{ async: [Function: async] }</tspan>
<tspan x="10" y="4170">starting</tspan>
<tspan x="10" y="4186">{ async: [Function: async] }</tspan>
<tspan x="10" y="4202">starting</tspan>
<tspan x="10" y="4218">{ async: [Function: async] }</tspan>
<tspan x="10" y="4234">starting</tspan>
<tspan x="10" y="4250">{ async: [Function: async] }</tspan>
<tspan x="10" y="4266">starting</tspan>
<tspan x="10" y="4282">{ async: [Function: async] }</tspan>
<tspan x="10" y="4298">starting</tspan>
<tspan x="10" y="4314">{ async: [Function: async] }</tspan>
<tspan x="10" y="4330">starting</tspan>
<tspan x="10" y="4346">{ async: [Function: async] }</tspan>
<tspan x="10" y="4362">starting</tspan>
<tspan x="10" y="4378">{ async: [Function: async] }</tspan>
<tspan x="10" y="4394">starting</tspan>
<tspan x="10" y="4410">{ async: [Function: async] }</tspan>
<tspan x="10" y="4426">starting</tspan>
<tspan x="10" y="4442">{ async: [Function: async] }</tspan>
<tspan x="10" y="4458">starting</tspan>
<tspan x="10" y="4474">{ async: [Function: async] }</tspan>
<tspan x="10" y="4490">starting</tspan>
<tspan x="10" y="4506">{ async: [Function: async] }</tspan>
<tspan x="10" y="4522">starting</tspan>
<tspan x="10" y="4538">{ async: [Function: async] }</tspan>
<tspan x="10" y="4554">starting</tspan>
<tspan x="10" y="4570">{ async: [Function: async] }</tspan>
<tspan x="10" y="4586">starting</tspan>
<tspan x="10" y="4602">{ async: [Function: async] }</tspan>
<tspan x="10" y="4618">starting</tspan>
<tspan x="10" y="4634">{ async: [Function: async] }</tspan>
<tspan x="10" y="4650">starting</tspan>
<tspan x="10" y="4666">{ async: [Function: async] }</tspan>
<tspan x="10" y="4682">starting</tspan>
<tspan x="10" y="4698">{ async: [Function: async] }</tspan>
<tspan x="10" y="4714">starting</tspan>
<tspan x="10" y="4730">{ async: [Function: async] }</tspan>
<tspan x="10" y="4746">starting</tspan>
<tspan x="10" y="4762">{ async: [Function: async] }</tspan>
<tspan x="10" y="4778">starting</tspan>
<tspan x="10" y="4794">{ async: [Function: async] }</tspan>
<tspan x="10" y="4810">starting</tspan>
<tspan x="10" y="4826">{ async: [Function: async] }</tspan>
<tspan x="10" y="4842">starting</tspan>
<tspan x="10" y="4858">{ async: [Function: async] }</tspan>
<tspan x="10" y="4874">starting</tspan>
<tspan x="10" y="4890">{ async: [Function: async] }</tspan>
<tspan x="10" y="4906">starting</tspan>
<tspan x="10" y="4922">{ async: [Function: async] }</tspan>
<tspan x="10" y="4938">starting</tspan>
<tspan x="10" y="4954">{ async: [Function: async] }</tspan>
<tspan x="10" y="4970">starting</tspan>
<tspan x="10" y="4986">{ async: [Function: async] }</tspan>
<tspan x="10" y="5002">starting</tspan>
<tspan x="10" y="5018">{ async: [Function: async] }</tspan>
<tspan x="10" y="5034">starting</tspan>
<tspan x="10" y="5050">{ async: [Function: async] }</tspan>
<tspan x="10" y="5066">starting</tspan>
<tspan x="10" y="5082">{ async: [Function: async] }</tspan>
<tspan x="10" y="5098">starting</tspan>
<tspan x="10" y="5114">{ async: [Function: async] }</tspan>
<tspan x="10" y="5130">starting</tspan>
<tspan x="10" y="5146">{ async: [Function: async] }</tspan>
<tspan x="10" y="5162">starting</tspan>
<tspan x="10" y="5178">{ async: [Function: async] }</tspan>
<tspan x="10" y="5194">starting</tspan>
<tspan x="10" y="5210">{ async: [Function: async] }</tspan>
<tspan x="10" y="5226">starting</tspan>
<tspan x="10" y="5242">{ async: [Function: async] }</tspan>
<tspan x="10" y="5258">starting</tspan>
<tspan x="10" y="5274">{ async: [Function: async] }</tspan>
<tspan x="10" y="5290">starting</tspan>
<tspan x="10" y="5306">{ async: [Function: async] }</tspan>
<tspan x="10" y="5322">starting</tspan>
<tspan x="10" y="5338">{ async: [Function: async] }</tspan>
<tspan x="10" y="5354">starting</tspan>
<tspan x="10" y="5370">{ async: [Function: async] }</tspan>
<tspan x="10" y="5386">starting</tspan>
<tspan x="10" y="5402">{ async: [Function: async] }</tspan>
<tspan x="10" y="5418">starting</tspan>
<tspan x="10" y="5434">{ async: [Function: async] }</tspan>
<tspan x="10" y="5450">starting</tspan>
<tspan x="10" y="5466">{ async: [Function: async] }</tspan>
<tspan x="10" y="5482">starting</tspan>
<tspan x="10" y="5498">{ async: [Function: async] }</tspan>
<tspan x="10" y="5514">starting</tspan>
<tspan x="10" y="5530">{ async: [Function: async] }</tspan>
<tspan x="10" y="5546">starting</tspan>
<tspan x="10" y="5562">{ async: [Function: async] }</tspan>
<tspan x="10" y="5578">starting</tspan>
<tspan x="10" y="5594">{ async: [Function: async] }</tspan>
<tspan x="10" y="5610">starting</tspan>
<tspan x="10" y="5626">{ async: [Function: async] }</tspan>
<tspan x="10" y="5642">starting</tspan>
<tspan x="10" y="5658">{ async: [Function: async] }</tspan>
<tspan x="10" y="5674">starting</tspan>
<tspan x="10" y="5690">{ async: [Function: async] }</tspan>
<tspan x="10" y="5706">starting</tspan>
<tspan x="10" y="5722">{ async: [Function: async] }</tspan>
<tspan x="10" y="5738">starting</tspan>
<tspan x="10" y="5754">{ async: [Function: async] }</tspan>
<tspan x="10" y="5770">starting</tspan>
<tspan x="10" y="5786">{ async: [Function: async] }</tspan>
<tspan x="10" y="5802">starting</tspan>
<tspan x="10" y="5818">{ async: [Function: async] }</tspan>
<tspan x="10" y="5834">starting</tspan>
<tspan x="10" y="5850">{ async: [Function: async] }</tspan>
<tspan x="10" y="5866">starting</tspan>
<tspan x="10" y="5882">{ async: [Function: async] }</tspan>
<tspan x="10" y="5898">starting</tspan>
<tspan x="10" y="5914">{ async: [Function: async] }</tspan>
<tspan x="10" y="5930">starting</tspan>
<tspan x="10" y="5946">{ async: [Function: async] }</tspan>
<tspan x="10" y="5962">starting</tspan>
<tspan x="10" y="5978">{ async: [Function: async] }</tspan>
<tspan x="10" y="5994">starting</tspan>
<tspan x="10" y="6010">{ async: [Function: async] }</tspan>
<tspan x="10" y="6026">starting</tspan>
<tspan x="10" y="6042">{ async: [Function: async] }</tspan>
<tspan x="10" y="6058">starting</tspan>
<tspan x="10" y="6074">{ async: [Function: async] }</tspan>
<tspan x="10" y="6090">starting</tspan>
<tspan x="10" y="6106">{ async: [Function: async] }</tspan>
<tspan x="10" y="6122">starting</tspan>
<tspan x="10" y="6138">{ async: [Function: async] }</tspan>
<tspan x="10" y="6154">starting</tspan>
<tspan x="10" y="6170">{ async: [Function: async] }</tspan>
<tspan x="10" y="6186">starting</tspan>
<tspan x="10" y="6202">{ async: [Function: async] }</tspan>
<tspan x="10" y="6218">starting</tspan>
<tspan x="10" y="6234">{ async: [Function: async] }</tspan>
<tspan x="10" y="6250">starting</tspan>
<tspan x="10" y="6266">{ async: [Function: async] }</tspan>
<tspan x="10" y="6282">starting</tspan>
<tspan x="10" y="6298">{ async: [Function: async] }</tspan>
<tspan x="10" y="6314">starting</tspan>
<tspan x="10" y="6330">{ async: [Function: async] }</tspan>
<tspan x="10" y="6346">starting</tspan>
<tspan x="10" y="6362">{ async: [Function: async] }</tspan>
<tspan x="10" y="6378">starting</tspan>
<tspan x="10" y="6394">{ async: [Function: async] }</tspan>
<tspan x="10" y="6410">starting</tspan>
<tspan x="10" y="6426">{ async: [Function: async] }</tspan>
<tspan x="10" y="6442">starting</tspan>
<tspan x="10" y="6458">{ async: [Function: async] }</tspan>
<tspan x="10" y="6474">starting</tspan>
<tspan x="10" y="6490">{ async: [Function: async] }</tspan>
<tspan x="10" y="6506">starting</tspan>
<tspan x="10" y="6522">{ async: [Function: async] }</tspan>
<tspan x="10" y="6538">starting</tspan>
<tspan x="10" y="6554">{ async: [Function: async] }</tspan>
<tspan x="10" y="6570">starting</tspan>
<tspan x="10" y="6586">{ async: [Function: async] }</tspan>
<tspan x="10" y="6602">starting</tspan>
<tspan x="10" y="6618">{ async: [Function: async] }</tspan>
<tspan x="10" y="6634">starting</tspan>
<tspan x="10" y="6650">{ async: [Function: async] }</tspan>
<tspan x="10" y="6666">starting</tspan>
<tspan x="10" y="6682">{ async: [Function: async] }</tspan>
<tspan x="10" y="6698">starting</tspan>
<tspan x="10" y="6714">{ async: [Function: async] }</tspan>
<tspan x="10" y="6730">starting</tspan>
<tspan x="10" y="6746">{ async: [Function: async] }</tspan>
<tspan x="10" y="6762">starting</tspan>
<tspan x="10" y="6778">{ async: [Function: async] }</tspan>
<tspan x="10" y="6794">starting</tspan>
<tspan x="10" y="6810">{ async: [Function: async] }</tspan>
<tspan x="10" y="6826">starting</tspan>
<tspan x="10" y="6842">{ async: [Function: async] }</tspan>
<tspan x="10" y="6858">starting</tspan>
<tspan x="10" y="6874">{ async: [Function: async] }</tspan>
<tspan x="10" y="6890">starting</tspan>
<tspan x="10" y="6906">{ async: [Function: async] }</tspan>
<tspan x="10" y="6922">starting</tspan>
<tspan x="10" y="6938">{ async: [Function: async] }</tspan>
<tspan x="10" y="6954">starting</tspan>
<tspan x="10" y="6970">{ async: [Function: async] }</tspan>
<tspan x="10" y="6986">starting</tspan>
<tspan x="10" y="7002">{ async: [Function: async] }</tspan>
<tspan x="10" y="7018">starting</tspan>
<tspan x="10" y="7034">{ async: [Function: async] }</tspan>
<tspan x="10" y="7050">starting</tspan>
<tspan x="10" y="7066">{ async: [Function: async] }</tspan>
<tspan x="10" y="7082">starting</tspan>
<tspan x="10" y="7098">{ async: [Function: async] }</tspan>
<tspan x="10" y="7114">starting</tspan>
<tspan x="10" y="7130">{ async: [Function: async] }</tspan>
<tspan x="10" y="7146">starting</tspan>
<tspan x="10" y="7162">{ async: [Function: async] }</tspan>
<tspan x="10" y="7178">starting</tspan>
<tspan x="10" y="7194">{ async: [Function: async] }</tspan>
<tspan x="10" y="7210">starting</tspan>
<tspan x="10" y="7226">{ async: [Function: async] }</tspan>
<tspan x="10" y="7242">starting</tspan>
<tspan x="10" y="7258">{ async: [Function: async] }</tspan>
<tspan x="10" y="7274">starting</tspan>
<tspan x="10" y="7290">{ async: [Function: async] }</tspan>
<tspan x="10" y="7306">starting</tspan>
<tspan x="10" y="7322">{ async: [Function: async] }</tspan>
<tspan x="10" y="7338">starting</tspan>
<tspan x="10" y="7354">{ async: [Function: async] }</tspan>
<tspan x="10" y="7370">starting</tspan>
<tspan x="10" y="7386">{ async: [Function: async] }</tspan>
<tspan x="10" y="7402">starting</tspan>
<tspan x="10" y="7418">{ async: [Function: async] }</tspan>
<tspan x="10" y="7434">starting</tspan>
<tspan x="10" y="7450">{ async: [Function: async] }</tspan>
<tspan x="10" y="7466">starting</tspan>
<tspan x="10" y="7482">{ async: [Function: async] }</tspan>
<tspan x="10" y="7498">starting</tspan>
<tspan x="10" y="7514">{ async: [Function: async] }</tspan>
<tspan x="10" y="7530">starting</tspan>
<tspan x="10" y="7546">{ async: [Function: async] }</tspan>
<tspan x="10" y="7562">starting</tspan>
<tspan x="10" y="7578">{ async: [Function: async] }</tspan>
<tspan x="10" y="7594">starting</tspan>
<tspan x="10" y="7610">{ async: [Function: async] }</tspan>
<tspan x="10" y="7626">starting</tspan>
<tspan x="10" y="7642">{ async: [Function: async] }</tspan>
<tspan x="10" y="7658">starting</tspan>
<tspan x="10" y="7674">{ async: [Function: async] }</tspan>
<tspan x="10" y="7690">starting</tspan>
<tspan x="10" y="7706">{ async: [Function: async] }</tspan>
<tspan x="10" y="7722">starting</tspan>
<tspan x="10" y="7738">{ async: [Function: async] }</tspan>
<tspan x="10" y="7754">starting</tspan>
<tspan x="10" y="7770">{ async: [Function: async] }</tspan>
<tspan x="10" y="7786">starting</tspan>
<tspan x="10" y="7802">{ async: [Function: async] }</tspan>
<tspan x="10" y="7818">starting</tspan>
<tspan x="10" y="7834">{ async: [Function: async] }</tspan>
<tspan x="10" y="7850">starting</tspan>
<tspan x="10" y="7866">{ async: [Function: async] }</tspan>
<tspan x="10" y="7882">starting</tspan>
<tspan x="10" y="7898">{ async: [Function: async] }</tspan>
<tspan x="10" y="7914">starting</tspan>
<tspan x="10" y="7930">{ async: [Function: async] }</tspan>
<tspan x="10" y="7946">starting</tspan>
<tspan x="10" y="7962">{ async: [Function: async] }</tspan>
<tspan x="10" y="7978">starting</tspan>
<tspan x="10" y="7994">{ async: [Function: async] }</tspan>
<tspan x="10" y="8010">starting</tspan>
<tspan x="10" y="8026">{ async: [Function: async] }</tspan>
<tspan x="10" y="8042">starting</tspan>
<tspan x="10" y="8058">{ async: [Function: async] }</tspan>
<tspan x="10" y="8074">starting</tspan>
<tspan x="10" y="8090">{ async: [Function: async] }</tspan>
<tspan x="10" y="8106">starting</tspan>
<tspan x="10" y="8122">{ async: [Function: async] }</tspan>
<tspan x="10" y="8138">starting</tspan>
<tspan x="10" y="8154">{ async: [Function: async] }</tspan>
<tspan x="10" y="8170">starting</tspan>
<tspan x="10" y="8186">{ async: [Function: async] }</tspan>
<tspan x="10" y="8202">starting</tspan>
<tspan x="10" y="8218">{ async: [Function: async] }</tspan>
<tspan x="10" y="8234">starting</tspan>
<tspan x="10" y="8250">{ async: [Function: async] }</tspan>
<tspan x="10" y="8266">starting</tspan>
<tspan x="10" y="8282">{ async: [Function: async] }</tspan>
<tspan x="10" y="8298">starting</tspan>
<tspan x="10" y="8314">{ async: [Function: async] }</tspan>
<tspan x="10" y="8330">starting</tspan>
<tspan x="10" y="8346">{ async: [Function: async] }</tspan>
<tspan x="10" y="8362">starting</tspan>
<tspan x="10" y="8378">{ async: [Function: async] }</tspan>
<tspan x="10" y="8394">starting</tspan>
<tspan x="10" y="8410">{ async: [Function: async] }</tspan>
<tspan x="10" y="8426">starting</tspan>
<tspan x="10" y="8442">{ async: [Function: async] }</tspan>
<tspan x="10" y="8458">starting</tspan>
<tspan x="10" y="8474">{ async: [Function: async] }</tspan>
<tspan x="10" y="8490">starting</tspan>
<tspan x="10" y="8506">{ async: [Function: async] }</tspan>
<tspan x="10" y="8522">starting</tspan>
<tspan x="10" y="8538">{ async: [Function: async] }</tspan>
<tspan x="10" y="8554">starting</tspan>
<tspan x="10" y="8570">{ async: [Function: async] }</tspan>
<tspan x="10" y="8586">starting</tspan>
<tspan x="10" y="8602">{ async: [Function: async] }</tspan>
<tspan x="10" y="8618">starting</tspan>
<tspan x="10" y="8634">{ async: [Function: async] }</tspan>
<tspan x="10" y="8650">starting</tspan>
<tspan x="10" y="8666">{ async: [Function: async] }</tspan>
<tspan x="10" y="8682">starting</tspan>
<tspan x="10" y="8698">{ async: [Function: async] }</tspan>
<tspan x="10" y="8714">starting</tspan>
<tspan x="10" y="8730">{ async: [Function: async] }</tspan>
<tspan x="10" y="8746">starting</tspan>
<tspan x="10" y="8762">{ async: [Function: async] }</tspan>
<tspan x="10" y="8778">starting</tspan>
<tspan x="10" y="8794">{ async: [Function: async] }</tspan>
<tspan x="10" y="8810">starting</tspan>
<tspan x="10" y="8826">{ async: [Function: async] }</tspan>
<tspan x="10" y="8842">starting</tspan>
<tspan x="10" y="8858">{ async: [Function: async] }</tspan>
<tspan x="10" y="8874">starting</tspan>
<tspan x="10" y="8890">{ async: [Function: async] }</tspan>
<tspan x="10" y="8906">starting</tspan>
<tspan x="10" y="8922">{ async: [Function: async] }</tspan>
<tspan x="10" y="8938">starting</tspan>
<tspan x="10" y="8954">{ async: [Function: async] }</tspan>
<tspan x="10" y="8970">starting</tspan>
<tspan x="10" y="8986">{ async: [Function: async] }</tspan>
<tspan x="10" y="9002">starting</tspan>
<tspan x="10" y="9018">{ async: [Function: async] }</tspan>
<tspan x="10" y="9034">starting</tspan>
<tspan x="10" y="9050">{ async: [Function: async] }</tspan>
<tspan x="10" y="9066">starting</tspan>
<tspan x="10" y="9082">{ async: [Function: async] }</tspan>
<tspan x="10" y="9098">starting</tspan>
<tspan x="10" y="9114">{ async: [Function: async] }</tspan>
<tspan x="10" y="9130">starting</tspan>
<tspan x="10" y="9146">{ async: [Function: async] }</tspan>
<tspan x="10" y="9162">starting</tspan>
<tspan x="10" y="9178">{ async: [Function: async] }</tspan>
<tspan x="10" y="9194">starting</tspan>
<tspan x="10" y="9210">{ async: [Function: async] }</tspan>
<tspan x="10" y="9226">starting</tspan>
<tspan x="10" y="9242">{ async: [Function: async] }</tspan>
<tspan x="10" y="9258">starting</tspan>
<tspan x="10" y="9274">{ async: [Function: async] }</tspan>
<tspan x="10" y="9290">starting</tspan>
<tspan x="10" y="9306">{ async: [Function: async] }</tspan>
<tspan x="10" y="9322">starting</tspan>
<tspan x="10" y="9338">{ async: [Function: async] }</tspan>
<tspan x="10" y="9354">starting</tspan>
<tspan x="10" y="9370">{ async: [Function: async] }</tspan>
<tspan x="10" y="9386">starting</tspan>
<tspan x="10" y="9402">{ async: [Function: async] }</tspan>
<tspan x="10" y="9418">starting</tspan>
<tspan x="10" y="9434">{ async: [Function: async] }</tspan>
<tspan x="10" y="9450">starting</tspan>
<tspan x="10" y="9466">{ async: [Function: async] }</tspan>
<tspan x="10" y="9482">starting</tspan>
<tspan x="10" y="9498">{ async: [Function: async] }</tspan>
<tspan x="10" y="9514">starting</tspan>
<tspan x="10" y="9530">{ async: [Function: async] }</tspan>
<tspan x="10" y="9546">starting</tspan>
<tspan x="10" y="9562">{ async: [Function: async] }</tspan>
<tspan x="10" y="9578">starting</tspan>
<tspan x="10" y="9594">{ async: [Function: async] }</tspan>
<tspan x="10" y="9610"></tspan>
<tspan x="10" y="9626">browserTest - created screenCapture file:///home/travis/build/npmdoc/node-npmdoc-hooker/tmp/buil\</tspan>
<tspan x="10" y="9642">d/screenCapture.npmTest.browser._2Fhome_2Ftravis_2Fbuild_2Fnpmdoc_2Fnode-npmdoc-hooker_2Ftmp_2Fb\</tspan>
<tspan x="10" y="9658">uild_2Fapidoc.html.png</tspan>
<tspan x="10" y="9674"></tspan>
<tspan x="10" y="9690">starting</tspan>
<tspan x="10" y="9706">{ async: [Function: async] }</tspan>
<tspan x="10" y="9722">starting</tspan>
<tspan x="10" y="9738">{ async: [Function: async] }</tspan>
<tspan x="10" y="9754">browserTest - created screenCapture file:///home/travis/build/npmdoc/node-npmdoc-hooker/tmp/buil\</tspan>
<tspan x="10" y="9770">d/screenCapture.npmTest.browser._2Fhome_2Ftravis_2Fbuild_2Fnpmdoc_2Fnode-npmdoc-hooker_2Ftmp_2Fb\</tspan>
<tspan x="10" y="9786">uild_2Fapidoc.html.html</tspan>
<tspan x="10" y="9802"></tspan>
<tspan x="10" y="9818">browserTest - exit-code 0 - /home/travis/build/npmdoc/node-npmdoc-hooker/tmp/build/apidoc.html</tspan>
<tspan x="10" y="9834"></tspan>
<tspan x="10" y="9850">[node test-case 5 of 6 passed] - testCase_buildApidoc_default</tspan>
<tspan x="10" y="9866">starting</tspan>
<tspan x="10" y="9882">{ async: [Function: async] }</tspan>
<tspan x="10" y="9898"></tspan>
<tspan x="10" y="9914">browserTest - created screenCapture file:///home/travis/build/npmdoc/node-npmdoc-hooker/tmp/buil\</tspan>
<tspan x="10" y="9930">d/screenCapture.npmTest.browser..png</tspan>
<tspan x="10" y="9946"></tspan>
<tspan x="10" y="9962">starting</tspan>
<tspan x="10" y="9978">{ async: [Function: async] }</tspan>
<tspan x="10" y="9994">browserTest - created screenCapture file:///home/travis/build/npmdoc/node-npmdoc-hooker/tmp/buil\</tspan>
<tspan x="10" y="10010">d/screenCapture.npmTest.browser..html</tspan>
<tspan x="10" y="10026"></tspan>
<tspan x="10" y="10042">browserTest - exit-code 0 - http://127.0.0.1:54142?modeTest=1</tspan>
<tspan x="10" y="10058"></tspan>
<tspan x="10" y="10074"></tspan>
<tspan x="10" y="10090">browserTest - merged coverage from /home/travis/build/npmdoc/node-npmdoc-hooker/tmp/coverage.npm\</tspan>
<tspan x="10" y="10106">Test.browser.%2F.json</tspan>
<tspan x="10" y="10122"></tspan>
<tspan x="10" y="10138"></tspan>
<tspan x="10" y="10154">browserTest - merging test-report from /home/travis/build/npmdoc/node-npmdoc-hooker/tmp/test-rep\</tspan>
<tspan x="10" y="10170">ort.npmTest.browser.%2F.json</tspan>
<tspan x="10" y="10186"></tspan>
<tspan x="10" y="10202">[node test-case 6 of 6 passed] - testCase_webpage_default</tspan>
<tspan x="10" y="10218">starting</tspan>
<tspan x="10" y="10234">{ async: [Function: async] }</tspan>
<tspan x="10" y="10250">starting</tspan>
<tspan x="10" y="10266">{ async: [Function: async] }</tspan>
<tspan x="10" y="10282">starting</tspan>
<tspan x="10" y="10298">{ async: [Function: async] }</tspan>
<tspan x="10" y="10314">starting</tspan>
<tspan x="10" y="10330">{ async: [Function: async] }</tspan>
<tspan x="10" y="10346">starting</tspan>
<tspan x="10" y="10362">{ async: [Function: async] }</tspan>
<tspan x="10" y="10378">starting</tspan>
<tspan x="10" y="10394">{ async: [Function: async] }</tspan>
<tspan x="10" y="10410">starting</tspan>
<tspan x="10" y="10426">{ async: [Function: async] }</tspan>
<tspan x="10" y="10442">starting</tspan>
<tspan x="10" y="10458">{ async: [Function: async] }</tspan>
<tspan x="10" y="10474">starting</tspan>
<tspan x="10" y="10490">{ async: [Function: async] }</tspan>
<tspan x="10" y="10506">starting</tspan>
<tspan x="10" y="10522">{ async: [Function: async] }</tspan>
<tspan x="10" y="10538">starting</tspan>
<tspan x="10" y="10554">{ async: [Function: async] }</tspan>
<tspan x="10" y="10570">starting</tspan>
<tspan x="10" y="10586">{ async: [Function: async] }</tspan>
<tspan x="10" y="10602">starting</tspan>
<tspan x="10" y="10618">{ async: [Function: async] }</tspan>
<tspan x="10" y="10634">starting</tspan>
<tspan x="10" y="10650">{ async: [Function: async] }</tspan>
<tspan x="10" y="10666">starting</tspan>
<tspan x="10" y="10682">{ async: [Function: async] }</tspan>
<tspan x="10" y="10698">starting</tspan>
<tspan x="10" y="10714">{ async: [Function: async] }</tspan>
<tspan x="10" y="10730">---------------------------|-----------|-----------|-----------|-----------|</tspan>
<tspan x="10" y="10746">File                       |   % Stmts |% Branches |   % Funcs |   % Lines |</tspan>
<tspan x="10" y="10762">---------------------------|-----------|-----------|-----------|-----------|</tspan>
<tspan x="10" y="10778">   node-npmdoc-hooker/     |       100 |       100 |       100 |       100 |</tspan>
<tspan x="10" y="10794">      example.js           |       100 |       100 |       100 |       100 |</tspan>
<tspan x="10" y="10810">      lib.npmdoc_hooker.js |       100 |       100 |       100 |       100 |</tspan>
<tspan x="10" y="10826">      test.js              |       100 |       100 |       100 |       100 |</tspan>
<tspan x="10" y="10842">---------------------------|-----------|-----------|-----------|-----------|</tspan>
<tspan x="10" y="10858">All files                  |       100 |       100 |       100 |       100 |</tspan>
<tspan x="10" y="10874">---------------------------|-----------|-----------|-----------|-----------|</tspan>
<tspan x="10" y="10890"></tspan>
<tspan x="10" y="10906">created coverage file:///home/travis/build/npmdoc/node-npmdoc-hooker/tmp/build/coverage.html/ind\</tspan>
<tspan x="10" y="10922">ex.html</tspan>
<tspan x="10" y="10938">merging file:///home/travis/build/npmdoc/node-npmdoc-hooker/tmp/build/test-report.json to test-r\</tspan>
<tspan x="10" y="10954">eport</tspan>
<tspan x="10" y="10970"></tspan>
<tspan x="10" y="10986">-------------------------------------------------------</tspan>
<tspan x="10" y="11002">| test-report - buildNpmdoc - node - linux v6.10.2 - 2017-04-07T02:57:35.025Z</tspan>
<tspan x="10" y="11018">|   56596 ms            0 failed        6 passed      |</tspan>
<tspan x="10" y="11034">-------------------------------------------------------</tspan>
<tspan x="10" y="11050"></tspan>
<tspan x="10" y="11066">created test-report file:///home/travis/build/npmdoc/node-npmdoc-hooker/tmp/build/test-report.ht\</tspan>
<tspan x="10" y="11082">ml</tspan>
<tspan x="10" y="11098"></tspan>
<tspan x="10" y="11114"></tspan>
<tspan x="10" y="11130">npmTest - 0 failed tests</tspan>
<tspan x="10" y="11146"></tspan>
<tspan x="10" y="11162"></tspan>
<tspan x="10" y="11178">[MODE_BUILD=npmTest] - 2017-04-07T02:58:35Z - EXIT_CODE - 0</tspan>
</text>
</svg>
